<svg width="48" height="48" viewBox="0 0 48 48" fill="none" xmlns="http://www.w3.org/2000/svg">
<circle cx="23.9999" cy="23.9999" r="23.9999" fill="#33CAFF"/>
<path d="M29.2071 12.4065H25.5363C20.8611 12.3583 20.2639 15.3398 20.2639 18.5667V20.9131H18.2002C18.1069 20.9002 18.012 20.9097 17.9228 20.9408C17.8337 20.9719 17.7527 21.0237 17.6862 21.0923C17.6196 21.1609 17.5693 21.2443 17.5391 21.3362C17.509 21.428 17.4998 21.5258 17.5122 21.6219V25.8752C17.4998 25.9713 17.509 26.0691 17.5391 26.161C17.5693 26.2528 17.6196 26.3363 17.6862 26.4049C17.7527 26.4734 17.8337 26.5253 17.9228 26.5564C18.012 26.5875 18.1069 26.5969 18.2002 26.5841H20.2639V37.2173C20.2525 37.3136 20.2625 37.4113 20.2933 37.503C20.3241 37.5947 20.3748 37.6779 20.4416 37.7463C20.5084 37.8147 20.5894 37.8665 20.6786 37.8977C20.7677 37.9288 20.8626 37.9386 20.956 37.9262H25.1593C25.5651 37.9744 25.894 37.6356 25.7646 37.2173L25.7674 26.5841H29.2071C29.3003 26.5969 29.3952 26.5875 29.4844 26.5564C29.5735 26.5253 29.6545 26.4734 29.721 26.4049C29.7876 26.3363 29.8379 26.2528 29.8681 26.161C29.8982 26.0691 29.9074 25.9713 29.895 25.8752V21.6219C29.9074 21.5258 29.8982 21.428 29.8681 21.3362C29.8379 21.2443 29.7876 21.1609 29.721 21.0923C29.6545 21.0237 29.5735 20.9719 29.4844 20.9408C29.3952 20.9097 29.3003 20.9002 29.2071 20.9131H25.7633L25.7674 18.7864C25.9009 17.8805 25.9009 18.0279 26.7167 18.0775H29.1782C29.3694 18.0336 29.573 18.0577 29.7161 17.9145C29.8592 17.7713 29.9418 17.5756 29.8936 17.3686V13.1154C29.9063 13.0193 29.8973 12.9215 29.8673 12.8297C29.8373 12.7378 29.7872 12.6543 29.7207 12.5857C29.6543 12.5171 29.5733 12.4652 29.4842 12.4341C29.3951 12.403 29.3003 12.3936 29.2071 12.4065ZM28.471 16.5804L26.7456 16.5123C24.6089 16.5123 24.4301 17.7075 24.4301 18.931L24.4246 21.6191C24.4244 21.7186 24.4432 21.8172 24.4801 21.9093C24.5169 22.0013 24.571 22.0849 24.6393 22.1554C24.7075 22.2258 24.7886 22.2817 24.8778 22.3198C24.967 22.358 25.0627 22.3776 25.1593 22.3776H28.5191V25.1167H25.162C24.967 25.1167 24.78 25.1964 24.642 25.3384C24.504 25.4803 24.4263 25.6729 24.4259 25.8738L24.4246 36.5085H21.6398V25.8752C21.6398 25.457 21.3633 25.1181 20.956 25.1181H18.8881V22.379H20.956C21.0525 22.3792 21.1482 22.3597 21.2374 22.3218C21.3266 22.2838 21.4077 22.2281 21.4761 22.1579C21.6137 22.0147 21.6384 21.8218 21.6384 21.6205V18.5652C21.6384 15.3866 22.2617 13.8724 25.5349 13.8724H28.4696L28.471 16.5804Z" fill="white"/>
</svg>
