<svg width="48" height="48" viewBox="0 0 48 48" fill="none" xmlns="http://www.w3.org/2000/svg">
<circle cx="23.9999" cy="23.9999" r="23.9999" fill="#33CAFF"/>
<path d="M39.3878 15.158C39.3488 15.0628 39.2828 14.9815 39.1981 14.9243C39.1133 14.8671 39.0138 14.8366 38.9119 14.8367H34.6935C34.2133 13.903 33.4911 13.1192 32.604 12.5691C31.717 12.0191 30.6988 11.7237 29.6584 11.7144C28.9221 11.7037 28.1911 11.8428 27.5089 12.1232C26.8267 12.4037 26.2071 12.8199 25.6869 13.3471C25.1488 13.8801 24.7217 14.5168 24.4308 15.2195C24.1399 15.9222 23.991 16.6767 23.9931 17.4386V18.8904C18.3793 17.6688 13.7043 12.9581 13.6541 12.9061C13.5852 12.8358 13.4979 12.7868 13.4025 12.7649C13.307 12.743 13.2074 12.7491 13.1153 12.7825C13.0229 12.8161 12.942 12.8757 12.8821 12.9543C12.8221 13.0329 12.7857 13.1273 12.777 13.2261C12.2368 19.2911 13.9692 23.3357 15.5177 25.6618C16.3595 26.9527 17.4144 28.0876 18.6365 29.0169C16.6199 31.6825 13.0471 33.0667 13.0098 33.081C12.9365 33.1083 12.8702 33.1521 12.8161 33.2091C12.762 33.2661 12.7215 33.3348 12.6976 33.4101C12.6736 33.4853 12.667 33.5651 12.6781 33.6433C12.6892 33.7215 12.7177 33.7962 12.7616 33.8616C12.7963 33.9136 13.1204 34.3819 13.9885 34.819C15.0843 35.3706 16.5466 35.6516 18.3343 35.6516C27.2199 35.6516 34.633 28.6838 35.2967 19.7503L39.2759 15.7252C39.3479 15.6525 39.397 15.5598 39.4169 15.4588C39.4368 15.3578 39.4267 15.2532 39.3878 15.158ZM34.4324 19.1519C34.3439 19.2417 34.2909 19.361 34.2832 19.4875C33.7482 27.9683 26.7428 34.6109 18.3343 34.6109C16.0386 34.6109 14.7808 34.1048 14.1544 33.7172C15.4881 33.0901 18.1992 31.5914 19.7914 29.1756C19.8301 29.1165 19.8565 29.05 19.8689 28.9802C19.8813 28.9104 19.8794 28.8387 19.8634 28.7697C19.8479 28.7003 19.8183 28.635 19.7765 28.5779C19.7346 28.5208 19.6815 28.4731 19.6204 28.438C19.6036 28.4276 17.8983 27.3972 16.3382 25.036C14.9904 22.9948 13.4972 19.5344 13.7287 14.4009C15.4225 15.9126 19.5779 19.2143 24.4227 20.0339C24.497 20.0465 24.5731 20.0424 24.6457 20.022C24.7183 20.0015 24.7855 19.9652 24.8427 19.9155C24.8998 19.8659 24.9455 19.8042 24.9765 19.7347C25.0075 19.6652 25.023 19.5897 25.022 19.5135V17.4386C25.021 16.8146 25.1432 16.1968 25.3815 15.6213C25.6198 15.0458 25.9694 14.5243 26.4097 14.0873C26.8348 13.6576 27.3408 13.3183 27.8976 13.0895C28.4545 12.8607 29.051 12.747 29.652 12.7552C31.4782 12.7786 33.1875 13.9078 33.9038 15.5665C33.9435 15.6579 34.0085 15.7359 34.0908 15.791C34.1731 15.8461 34.2694 15.8761 34.3681 15.8774H37.6695L34.4324 19.1519Z" fill="white"/>
</svg>
